<?xml version="1.0" standalone="no"?>
<!DOCTYPE svg PUBLIC "-//W3C//DTD SVG 20010904//EN"
 "http://www.w3.org/TR/2001/REC-SVG-20010904/DTD/svg10.dtd">
<svg version="1.0" xmlns="http://www.w3.org/2000/svg"
 width="2000.000000pt" height="2000.000000pt" viewBox="0 0 2000.000000 2000.000000"
 preserveAspectRatio="xMidYMid meet">
<metadata>
Created by potrace 1.11, written by Peter Selinger 2001-2013
</metadata>
<g transform="translate(0.000000,2000.000000) scale(0.100000,-0.100000)"
fill="#000000" stroke="none">
<path d="M14929 15802 c-14 -2 -15 -226 -14 -1980 1 -1087 5 -2002 9 -2032 36
-274 35 -266 67 -410 20 -94 109 -371 134 -420 7 -14 34 -68 60 -120 228 -453
594 -794 1083 -1009 200 -88 419 -152 607 -177 22 -3 65 -9 95 -14 57 -9 486
-6 530 3 14 3 48 8 75 11 28 3 59 8 70 10 42 8 95 17 97 17 3 0 186 48 203 53
6 2 17 5 25 8 296 103 471 196 694 367 106 80 316 282 382 366 21 28 42 52 45
55 3 3 28 37 56 75 238 330 380 726 409 1141 7 108 8 323 0 390 -3 27 -8 78
-12 114 -3 36 -8 74 -10 85 -3 11 -7 36 -10 55 -15 91 -86 339 -121 420 -187
439 -497 815 -888 1075 -296 198 -599 308 -965 352 -85 10 -458 10 -580 -1
-52 -5 -103 -8 -112 -8 -10 1 -19 -2 -19 -6 -3 -13 -5 -1832 -2 -1832 1 0 26
15 55 34 59 37 138 75 213 101 63 22 230 25 300 6 266 -73 451 -310 460 -592
7 -199 -53 -349 -193 -485 -121 -117 -261 -173 -446 -179 -232 -6 -417 93
-521 280 -52 92 -75 165 -112 359 -3 17 -7 891 -9 1941 -2 1051 -5 1919 -7
1929 -2 19 -21 19 -818 20 -448 1 -822 0 -830 -2z"/>
<path d="M10220 11557 c-3 -3 -39 -7 -80 -11 -544 -46 -1109 -315 -1515 -723
-271 -272 -477 -603 -595 -953 -32 -96 -67 -213 -74 -250 -2 -14 -9 -45 -14
-70 -29 -129 -45 -292 -46 -470 -1 -262 20 -449 77 -662 13 -47 23 -95 22
-107 -1 -11 2 -18 7 -15 4 3 8 2 9 -3 4 -47 93 -263 161 -393 315 -601 844
-1044 1488 -1245 80 -25 140 -41 180 -49 14 -2 45 -9 70 -14 40 -10 82 -17
160 -28 140 -19 394 -24 560 -10 52 4 97 9 100 11 3 2 28 6 57 9 78 8 272 53
374 87 230 76 428 171 616 295 l113 75 63 -63 c34 -35 118 -115 186 -178 69
-63 139 -128 156 -145 29 -27 215 -201 315 -295 21 -19 93 -87 161 -151 68
-64 140 -131 159 -149 35 -33 229 -214 330 -309 102 -96 168 -134 270 -156
201 -42 409 51 511 230 89 155 81 357 -19 503 -20 30 -84 98 -142 152 -58 54
-119 111 -135 126 -36 34 -272 255 -319 299 -85 79 -302 282 -320 300 -12 11
-91 85 -176 164 -85 80 -184 173 -220 207 -82 78 -118 111 -151 138 l-27 21
59 105 c120 214 231 512 265 708 3 15 7 34 9 42 3 8 7 33 10 55 4 22 8 51 11
65 25 142 24 585 -1 705 -1 6 -5 33 -9 60 -31 200 -143 549 -226 700 -9 17
-29 55 -45 85 -106 200 -267 413 -450 593 -122 121 -355 307 -383 307 -6 0
-12 4 -14 8 -5 14 -148 96 -263 151 -187 90 -381 157 -570 196 -44 9 -89 19
-100 21 -11 2 -45 7 -75 10 -30 3 -59 8 -64 11 -10 7 -460 16 -466 10z m-285
-637 c-3 -5 -1 -10 6 -10 8 0 8 -4 -1 -15 -9 -11 -9 -15 -1 -15 7 0 9 -4 6
-10 -6 -9 25 -15 50 -10 5 1 31 4 58 6 38 4 47 2 42 -8 -3 -7 0 -5 8 5 13 16
15 16 21 1 3 -9 3 -21 -1 -26 -3 -7 -1 -8 6 -4 7 4 9 17 6 29 -6 21 -5 21 6 3
7 -11 23 -30 35 -41 18 -17 21 -24 11 -34 -9 -10 -9 -11 4 -6 18 7 34 -20 22
-38 -4 -6 0 -8 10 -4 9 3 16 3 15 -1 -1 -4 4 -20 10 -35 7 -16 9 -33 6 -39 -4
-6 -2 -8 3 -5 6 4 16 0 22 -7 9 -11 9 -16 0 -21 -8 -6 -7 -10 2 -16 11 -7 11
-9 1 -9 -7 0 -10 -5 -7 -10 4 -6 11 -7 17 -4 7 5 9 1 5 -9 -3 -9 -2 -19 3 -22
6 -4 10 -11 10 -16 0 -6 -5 -7 -11 -3 -6 3 -3 -5 6 -20 9 -14 22 -23 29 -19 6
3 7 2 3 -2 -4 -5 3 -15 15 -22 13 -7 17 -12 10 -13 -7 0 -11 -4 -7 -9 3 -5 0
-13 -6 -17 -8 -4 -9 -3 -5 4 11 19 -5 14 -20 -5 -11 -15 -15 -16 -23 -4 -6 9
-8 1 -7 -25 1 -22 -2 -45 -7 -52 -8 -9 -6 -12 4 -10 8 2 15 -7 17 -19 2 -13 9
-23 15 -23 7 0 6 -4 -3 -10 -10 -6 -11 -10 -2 -10 6 0 12 -5 12 -12 0 -6 8
-20 18 -31 12 -15 13 -19 2 -13 -8 4 -6 0 5 -9 11 -9 20 -21 20 -28 0 -7 9
-11 18 -9 12 2 21 -4 24 -18 4 -16 8 -18 14 -8 7 10 9 10 9 1 0 -7 6 -13 14
-13 8 0 16 -6 19 -12 3 -10 8 -9 22 2 11 8 16 10 11 3 -5 -9 -2 -11 8 -7 8 3
17 12 20 20 3 8 12 14 19 14 8 0 14 6 15 13 3 38 11 52 28 52 14 0 18 6 16 23
-2 12 1 21 6 20 6 -2 11 2 12 7 2 14 28 27 39 20 5 -3 13 0 17 6 4 8 3 9 -4 5
-7 -4 -12 -5 -12 -2 0 3 14 13 31 22 30 15 32 15 25 -2 -6 -16 -5 -16 15 2 14
11 19 13 14 4 -5 -9 1 -7 14 5 14 12 21 14 19 6 -2 -7 3 -15 10 -17 7 -1 8 0
3 2 -6 3 -7 12 -4 20 3 7 9 11 14 8 5 -3 9 -1 9 4 0 5 12 17 26 27 15 9 24 13
21 8 -4 -5 0 -10 7 -10 8 0 12 6 9 13 -3 9 2 12 16 9 12 -2 20 1 18 8 -1 7 4
11 12 9 7 -1 19 2 25 8 7 5 16 7 19 3 4 -3 9 1 13 10 3 9 11 14 18 11 7 -3 24
6 37 20 19 20 27 22 39 13 13 -10 13 -10 2 5 -14 18 -7 62 8 53 4 -3 4 11 0
31 -6 28 -5 34 5 30 7 -2 16 1 19 9 3 10 0 12 -12 9 -9 -3 -2 4 16 16 17 12
32 30 32 40 0 11 5 22 11 25 5 4 8 12 6 18 -2 7 3 18 12 25 9 8 11 11 4 8 -8
-5 -8 0 0 17 10 22 37 33 37 15 0 -4 12 -8 26 -8 20 0 24 -3 16 -13 -8 -10 -6
-13 8 -13 10 0 16 5 13 11 -4 5 5 -1 19 -15 37 -35 56 -50 65 -50 4 1 -3 10
-16 20 -13 11 -19 20 -14 20 5 0 18 -8 29 -18 10 -10 27 -21 37 -25 11 -4 15
-12 11 -18 -4 -8 -3 -9 4 -5 7 4 12 1 12 -6 0 -9 3 -9 10 2 5 8 10 11 10 5 0
-5 18 -21 40 -35 22 -13 40 -28 40 -32 0 -4 9 -8 19 -8 11 0 23 -5 27 -12 5
-7 3 -8 -7 -3 -12 8 -12 6 0 -8 7 -9 18 -17 23 -17 15 0 38 -27 30 -35 -4 -5
-1 -5 6 -1 15 9 75 -41 66 -55 -2 -4 5 -6 17 -4 18 4 19 2 8 -11 -7 -8 -8 -14
-3 -13 5 1 15 1 23 0 11 -1 11 -4 0 -18 -13 -15 -12 -15 11 -3 14 7 22 10 19
6 -8 -9 43 -65 53 -59 4 2 5 -5 3 -16 -3 -14 1 -18 16 -14 11 3 19 0 19 -6 0
-7 -4 -10 -9 -6 -5 3 -13 1 -16 -5 -4 -6 -3 -10 2 -9 4 1 19 -2 31 -6 18 -6
20 -10 10 -16 -10 -7 -9 -9 5 -9 10 0 15 -4 12 -10 -3 -5 2 -10 12 -10 15 0
16 -2 3 -10 -12 -8 -12 -10 -1 -10 16 0 61 -49 61 -66 0 -7 7 -14 15 -18 8 -3
23 -21 32 -40 9 -20 21 -32 27 -29 6 4 5 -1 -3 -10 -12 -15 -11 -17 2 -17 9 0
19 -5 23 -12 5 -7 3 -8 -7 -3 -12 8 -12 6 -1 -8 8 -9 11 -21 7 -26 -3 -7 0 -8
9 -5 11 4 16 0 16 -10 0 -9 4 -16 9 -16 5 0 12 -7 15 -16 6 -15 4 -15 -11 -4
-10 8 -5 1 10 -14 16 -16 26 -34 23 -43 -3 -8 -1 -11 4 -8 6 3 10 -3 10 -14 0
-12 5 -21 11 -21 5 0 7 -4 4 -10 -3 -5 -1 -10 6 -10 7 0 9 -3 6 -7 -4 -3 1
-11 10 -18 13 -9 13 -14 3 -20 -9 -5 -11 -4 -6 3 4 7 2 12 -3 12 -6 0 -11 -6
-11 -13 0 -16 -31 -43 -59 -52 -14 -4 -21 -2 -21 7 0 10 -2 10 -9 -1 -7 -11
-18 -7 -55 18 -26 18 -44 37 -40 43 4 7 -2 8 -17 3 -22 -7 -23 -7 -9 10 8 11
10 16 4 12 -6 -3 -22 0 -37 8 -16 8 -29 10 -33 4 -3 -5 -10 -6 -16 -3 -7 4 -8
2 -4 -5 4 -6 0 -14 -8 -17 -9 -3 -13 -10 -10 -15 3 -5 0 -8 -8 -7 -7 2 -12 -3
-10 -11 2 -8 -3 -11 -12 -8 -9 4 -15 3 -15 -1 3 -20 -2 -32 -15 -32 -8 0 -18
-5 -22 -12 -4 -7 -3 -8 4 -4 8 5 10 2 6 -8 -3 -9 -10 -14 -14 -11 -4 3 -15 -7
-24 -20 -9 -14 -21 -23 -26 -20 -6 4 -10 2 -10 -3 0 -11 -30 -9 -49 3 -10 6
-12 4 -6 -5 6 -9 -1 -12 -28 -8 -20 2 -33 0 -31 -4 10 -17 -16 -7 -26 10 -11
16 -11 16 -6 0 5 -16 2 -19 -19 -18 -3 0 -11 -5 -19 -12 -11 -11 -9 -19 11
-51 14 -22 20 -36 14 -33 -6 4 -11 3 -11 -3 0 -5 4 -12 10 -16 10 -6 -24 -45
-41 -45 -5 0 -8 -4 -5 -9 4 -5 -4 -7 -16 -3 -14 3 -19 1 -14 -6 3 -6 -22 1
-56 15 -198 79 -264 93 -433 88 -144 -4 -256 -33 -381 -99 -87 -47 -110 -63
-195 -146 -138 -135 -217 -299 -242 -500 -1 -14 -6 -30 -10 -37 -4 -6 -3 -14
1 -17 11 -6 10 -46 -1 -63 -5 -7 -4 -13 1 -13 5 0 9 -14 10 -30 1 -44 20 -136
43 -205 10 -33 19 -64 19 -68 -1 -4 6 -15 15 -23 8 -9 15 -23 15 -32 0 -14 -2
-14 -9 -3 -5 7 -13 11 -19 7 -5 -3 -13 1 -16 10 -3 8 -11 12 -17 8 -7 -4 -9
-3 -6 2 3 6 2 16 -3 24 -5 8 -4 22 2 33 6 11 6 17 0 13 -5 -3 -18 4 -28 16
-11 12 -13 18 -5 13 10 -5 12 -4 7 3 -4 7 -12 12 -17 12 -25 0 -39 31 -39 84
l0 56 -52 1 c-29 1 -61 1 -70 0 -10 -1 -18 2 -18 8 0 6 -7 8 -15 5 -8 -4 -17
1 -21 9 -3 8 -17 18 -30 21 -14 4 -22 11 -19 16 3 6 2 10 -2 10 -12 0 -33 61
-33 96 l0 30 118 -1 c64 -1 123 -4 130 -9 8 -5 10 -2 5 10 -3 9 -7 173 -7 363
l-1 346 -110 1 c-149 2 -142 1 -139 27 1 12 3 31 3 41 1 11 4 16 8 13 3 -4 13
-1 21 6 13 10 14 9 7 -3 -8 -13 -7 -13 9 -1 14 12 21 13 38 2 11 -7 17 -8 14
-2 -8 12 34 42 48 34 6 -3 5 0 -1 8 -18 19 -16 30 4 22 15 -6 16 -5 3 9 -8 9
-19 13 -24 10 -5 -3 -6 3 -2 14 6 15 5 16 -5 7 -10 -10 -15 -9 -25 5 -10 13
-9 19 4 28 17 12 45 8 37 -6 -3 -5 4 -6 15 -3 12 3 27 -2 37 -14 10 -10 15
-14 11 -8 -5 8 7 10 42 5 27 -3 47 -3 44 1 -8 14 29 19 45 7 15 -12 15 -11 1
6 -14 18 -13 19 2 13 13 -4 15 -2 11 10 -4 11 -3 14 6 9 8 -6 11 -2 9 10 -2
13 2 18 12 16 11 -3 10 1 -4 17 -10 11 -15 25 -10 33 4 7 4 10 -1 6 -8 -8 -25
6 -44 37 -11 19 -12 18 -5 -4 l6 -24 -26 26 c-14 14 -26 31 -26 37 0 6 -5 8
-12 4 -8 -5 -9 -2 -5 9 3 9 1 19 -5 23 -7 5 -8 2 -3 -7 4 -8 -3 -3 -16 11 -34
35 -49 66 -37 78 6 6 5 12 -3 17 -8 5 -10 4 -5 -3 4 -7 2 -12 -5 -12 -6 0 -9
8 -6 20 4 14 0 20 -11 20 -13 0 -14 2 -4 9 11 6 10 10 -3 15 -9 3 -15 12 -12
19 6 15 -29 17 -51 3 -7 -4 -20 -5 -29 -2 -14 6 -14 4 -2 -10 13 -16 12 -16
-8 -5 -19 10 -22 9 -16 -5 5 -14 3 -15 -16 -5 -12 7 -27 9 -34 5 -6 -4 -9 -4
-5 1 5 5 -2 13 -14 19 -12 6 -23 18 -26 26 -3 9 2 7 12 -5 16 -19 16 -19 5 7
-7 15 -21 30 -32 34 -16 5 -17 8 -6 15 11 7 10 9 -4 9 -10 0 -20 7 -23 15 -4
8 -15 15 -26 15 -13 0 -17 4 -12 13 5 7 0 6 -12 -3 -33 -25 -55 -53 -51 -64 2
-6 -3 -17 -12 -24 -10 -8 -10 -11 -2 -6 10 5 12 3 5 -7 -5 -8 -9 -21 -9 -29 0
-13 -26 -15 -163 -18 -124 -2 -162 0 -156 9 5 8 3 9 -6 4 -8 -5 -20 1 -32 16
-11 13 -16 17 -12 9 5 -11 4 -12 -5 -4 -17 16 -27 79 -10 69 8 -6 10 -4 4 5
-11 18 -13 60 -3 66 5 3 6 10 3 15 -4 5 1 12 9 15 9 3 13 10 10 15 -3 5 6 20
20 34 15 14 26 31 26 38 0 7 4 6 10 -3 8 -13 10 -12 10 3 0 18 45 42 60 32 5
-3 12 0 16 6 5 8 3 9 -6 4 -9 -5 -11 -4 -6 4 6 9 11 9 22 0 11 -9 14 -8 14 7
0 16 2 17 10 4 9 -13 10 -13 10 0 0 13 1 13 10 0 9 -13 14 -8 12 12 -1 3 5 9
14 12 10 4 13 1 9 -7 -4 -6 7 4 24 23 17 19 31 29 31 21 0 -8 3 -12 6 -8 3 3
-1 16 -10 29 -19 26 -21 42 -4 32 7 -4 8 -3 4 5 -11 16 -28 2 -22 -18 5 -12 2
-11 -9 3 -17 23 -45 30 -45 13 0 -7 -5 -4 -11 6 -8 14 -14 15 -24 7 -10 -8
-16 -7 -25 7 -10 16 -10 16 -5 -4 3 -12 1 -25 -6 -29 -8 -4 -9 -3 -5 4 4 7 3
12 -3 12 -5 0 -13 -4 -16 -10 -3 -5 -14 -8 -23 -7 -29 5 -63 27 -57 38 4 5 1
9 -6 9 -7 0 -9 3 -5 7 4 5 14 -1 23 -12 15 -20 15 -20 8 2 -5 19 0 27 29 44
20 12 36 26 36 31 0 6 5 6 14 -1 11 -9 16 -9 22 0 5 8 3 9 -6 4 -8 -5 -11 -4
-7 3 6 9 27 9 47 2 3 -1 8 -2 12 -1 4 0 4 -7 1 -16 -4 -11 -3 -14 5 -9 7 4 12
2 12 -6 0 -9 3 -9 10 2 6 10 10 11 10 3 0 -7 11 -12 25 -11 28 3 31 8 13 26
-9 9 -8 12 6 12 9 0 14 5 11 10 -4 6 -11 8 -16 5 -5 -4 -9 -1 -9 4 0 6 5 11
11 11 5 0 8 4 4 9 -3 5 5 21 17 34 27 29 113 75 103 55 -3 -7 0 -5 8 5 16 20
31 23 22 5 -4 -7 0 -5 8 4 8 10 17 15 20 11 4 -3 7 0 7 7 0 7 3 10 7 7 3 -4
13 -1 21 6 13 10 14 9 7 -3 -4 -8 2 -5 14 8 19 19 25 21 39 10 12 -10 14 -10
8 0 -4 6 -3 12 1 12 5 0 15 -6 22 -12 10 -11 11 -9 5 7 -7 18 -6 19 10 6 9 -8
16 -10 15 -5 -4 21 2 26 15 14 11 -9 19 -9 33 0 16 10 15 10 -4 5 -13 -4 -23
-4 -23 0 0 3 10 10 23 15 29 12 29 12 22 0z m1865 -1464 c0 5 11 10 24 10 14
0 22 -4 19 -10 -4 -5 1 -7 10 -3 10 4 17 1 17 -6 0 -8 4 -6 10 3 8 13 10 13
10 -1 0 -9 6 -19 14 -22 8 -3 20 -15 26 -26 9 -18 8 -20 -7 -15 -10 3 -5 -2
10 -11 15 -9 25 -20 21 -26 -3 -6 5 -19 17 -30 l24 -20 16 20 c21 26 31 27 22
4 -7 -19 -5 -18 17 10 10 14 11 17 0 15 -7 -2 -15 3 -18 11 -3 10 0 11 9 5 11
-6 12 -5 2 7 -7 9 -9 20 -3 29 6 9 5 17 -3 22 -9 6 -9 8 1 8 17 0 63 -35 56
-43 -3 -3 4 -8 15 -12 12 -3 21 -15 21 -25 0 -10 7 -20 15 -24 11 -4 13 -11 6
-29 -10 -24 -9 -25 38 -29 16 -2 18 -5 8 -17 -10 -12 -9 -12 10 -1 12 8 20 17
17 21 -7 11 24 31 37 23 7 -4 9 -3 6 3 -9 15 17 46 42 50 12 2 20 -1 17 -6 -4
-5 -3 -11 1 -14 5 -2 3 -2 -4 -1 -7 2 -15 -1 -18 -7 -4 -5 -1 -8 6 -7 7 2 18
-8 25 -22 14 -27 9 -43 -6 -20 -6 9 -10 10 -10 3 0 -6 5 -15 10 -18 6 -4 8
-11 5 -16 -4 -5 -1 -9 4 -9 6 0 11 -5 11 -11 0 -5 -3 -8 -7 -6 -5 3 -9 -6 -10
-20 -1 -18 2 -22 7 -12 6 8 9 -7 8 -41 0 -67 -2 -72 -33 -60 -21 8 -23 7 -19
-15 3 -20 1 -23 -12 -18 -13 5 -15 3 -9 -8 6 -11 5 -12 -6 -1 -16 15 -33 16
-23 0 4 -7 3 -8 -4 -4 -7 4 -12 3 -12 -3 0 -6 -7 -8 -15 -5 -9 4 -15 0 -15 -7
0 -11 -3 -11 -10 1 -7 11 -10 11 -10 2 0 -7 -4 -10 -10 -7 -5 3 -10 1 -10 -4
0 -6 -5 -11 -11 -11 -5 0 -7 6 -3 13 6 9 5 9 -8 0 -8 -7 -18 -10 -21 -6 -4 3
-7 1 -7 -6 0 -9 -5 -9 -20 -1 -14 8 -20 8 -20 0 0 -6 -5 -8 -10 -5 -6 4 -8 11
-4 16 3 6 -4 13 -16 16 -15 4 -20 11 -17 25 4 15 2 17 -7 8 -10 -7 -17 -6 -27
7 -12 15 -12 16 1 8 8 -4 12 -5 8 0 -4 4 -18 13 -30 19 -13 6 -27 21 -33 34
-5 12 -16 22 -23 22 -7 0 -10 5 -7 10 3 6 1 10 -5 10 -6 0 -8 5 -4 12 5 8 2 9
-9 5 -10 -4 -17 -1 -17 6 0 7 -16 22 -36 35 -20 13 -32 27 -28 34 4 7 3 8 -5
4 -8 -5 -9 -12 -2 -20 19 -23 -81 -14 -102 9 -10 11 -32 35 -49 54 l-30 33 26
24 c16 15 26 20 27 12 0 -10 2 -10 6 0 2 6 12 12 21 12 8 0 13 3 9 6 -3 4 0
13 8 20 17 17 28 18 20 2 -4 -7 3 -2 15 12 12 14 18 19 14 11 -5 -9 -3 -12 4
-7 7 4 12 15 12 24 0 15 2 15 10 2 5 -8 10 -10 10 -4z m-3096 -158 c-3 -4 4
-11 13 -17 17 -10 17 -10 -2 -11 -18 -1 -18 -2 3 -10 26 -11 30 -22 5 -14 -10
2 -8 -1 4 -7 12 -6 24 -18 27 -26 3 -8 1 -11 -4 -8 -6 3 -10 1 -10 -4 0 -10
14 -15 32 -12 4 0 5 -6 1 -15 -3 -8 2 -21 13 -29 11 -7 16 -17 12 -21 -4 -4 2
-15 14 -25 11 -11 17 -19 13 -19 -4 0 0 -10 11 -22 10 -12 14 -19 8 -15 -6 3
-11 0 -11 -7 0 -8 7 -12 15 -8 10 3 13 1 8 -6 -4 -7 -2 -12 4 -12 7 0 10 -7 7
-15 -4 -8 -1 -17 5 -21 7 -5 8 -2 3 6 -5 9 -4 11 3 6 7 -4 12 -12 12 -17 0
-10 44 -58 57 -62 5 -1 7 -4 6 -7 -1 -3 8 -7 20 -7 18 -2 19 0 7 8 -18 12 36
1 63 -13 9 -5 17 -6 17 -3 0 10 85 -37 97 -54 7 -10 8 -20 2 -27 -5 -6 -6 -14
-2 -18 8 -7 9 -18 15 -128 1 -38 6 -68 9 -68 4 0 10 -21 14 -47 14 -98 85
-246 164 -341 20 -24 35 -48 34 -53 -2 -5 0 -8 5 -7 12 4 53 -29 56 -45 1 -8
8 -22 15 -31 7 -8 9 -21 5 -28 -5 -10 -4 -10 6 -1 11 10 11 15 -1 30 -12 16
-11 16 8 -1 13 -10 20 -23 16 -29 -4 -6 0 -8 11 -4 9 4 15 3 12 -2 -3 -5 1
-11 9 -15 8 -3 15 -13 15 -21 0 -9 5 -13 10 -10 6 3 10 1 10 -4 0 -6 6 -11 14
-11 10 0 13 -7 11 -20 -3 -15 1 -20 13 -18 14 2 17 -6 18 -44 0 -27 -3 -48 -7
-48 -5 0 -5 -8 -2 -17 6 -16 5 -17 -12 -3 -18 15 -18 14 -1 -12 18 -27 18 -28
0 -28 -16 0 -17 -2 -4 -11 12 -9 13 -12 1 -16 -11 -5 -11 -7 0 -14 9 -5 10 -9
2 -9 -6 0 -9 -9 -6 -22 3 -16 2 -19 -4 -10 -7 9 -13 6 -21 -14 -7 -15 -18 -24
-26 -21 -7 3 -13 -1 -13 -9 0 -7 5 -10 11 -7 6 4 5 0 -1 -9 -7 -8 -10 -18 -6
-21 3 -4 1 -7 -6 -7 -8 0 -10 -7 -6 -20 4 -12 2 -20 -5 -20 -7 0 -10 -7 -6
-15 3 -8 1 -15 -5 -15 -6 0 -6 -7 1 -20 8 -16 8 -18 -4 -14 -11 4 -13 -1 -9
-26 3 -25 2 -30 -9 -24 -11 6 -11 5 0 -8 15 -18 1 -34 -20 -23 -7 4 -6 1 3 -7
17 -13 16 -48 -1 -77 -8 -14 -9 -13 -7 4 1 11 6 27 11 35 4 8 -2 4 -13 -9 -12
-13 -21 -18 -21 -12 0 6 -7 11 -15 11 -8 0 -15 5 -15 11 0 5 -4 7 -10 4 -5 -3
-10 2 -10 12 0 15 -2 16 -10 3 -6 -10 -10 -11 -10 -2 0 6 -6 12 -14 12 -8 0
-17 7 -20 16 -3 8 -10 12 -16 9 -5 -3 -10 -1 -10 5 0 6 -5 8 -10 5 -6 -4 -10
-3 -9 2 1 4 1 15 0 23 -1 13 -2 13 -11 0 -8 -12 -10 -12 -16 3 -3 9 -12 17
-20 17 -8 0 -14 5 -14 11 0 5 -4 7 -10 4 -6 -4 -7 1 -3 11 4 11 3 15 -5 10 -6
-3 -15 2 -21 11 -5 10 -13 18 -18 18 -4 0 -7 4 -5 8 1 5 -1 6 -6 3 -4 -2 -14
0 -22 5 -12 7 -13 11 -2 18 11 7 10 9 -3 14 -9 4 -13 3 -10 -3 15 -24 -11 -7
-53 35 -24 25 -49 45 -54 45 -5 0 -7 4 -3 9 3 5 1 12 -5 16 -6 4 -7 12 -3 18
4 7 -1 6 -10 -2 -15 -12 -17 -12 -11 3 4 11 2 16 -6 14 -8 -2 -19 7 -25 19 -7
13 -15 20 -19 15 -4 -4 -7 -2 -6 3 5 22 -1 36 -12 29 -7 -5 -9 -2 -5 9 4 11 2
14 -9 10 -17 -6 -19 18 -1 37 6 8 1 6 -12 -5 -22 -18 -24 -18 -18 -2 4 11 1
17 -7 17 -8 0 -17 7 -20 16 -4 10 -2 13 6 8 7 -4 8 -3 4 4 -4 7 -15 12 -24 12
-15 0 -15 2 -2 10 11 7 12 10 2 10 -19 0 -48 30 -30 31 10 0 10 2 0 6 -6 2
-10 9 -6 14 3 5 0 8 -8 7 -7 -2 -12 3 -11 10 2 6 -4 12 -13 12 -12 0 -15 7
-12 24 4 18 1 23 -10 18 -12 -4 -14 0 -10 16 4 15 2 22 -8 22 -13 0 -18 12
-15 33 0 4 -4 7 -9 7 -5 0 -10 7 -10 16 0 9 5 12 12 8 7 -4 8 -3 4 5 -6 9 -11
9 -22 0 -17 -14 -19 2 -1 20 9 10 9 12 0 7 -14 -8 -43 42 -35 63 2 8 0 11 -6
7 -11 -6 -23 16 -27 48 -1 11 -8 22 -15 24 -9 3 -9 6 1 13 12 7 11 9 -1 9 -13
0 -13 1 0 10 13 8 12 10 -4 10 -19 0 -19 0 0 23 10 12 12 16 4 10 -18 -17 -27
-16 -27 2 0 8 5 12 11 9 6 -3 2 2 -9 11 -19 16 -19 16 8 11 15 -3 27 0 27 6 0
5 -7 8 -15 4 -21 -8 -47 23 -42 50 2 13 0 21 -4 18 -5 -2 -12 10 -17 28 -7 25
-6 36 5 45 12 9 11 12 -6 18 -12 4 -21 15 -22 28 -1 30 -6 58 -13 64 -3 3 -1
15 5 26 7 12 7 17 1 13 -5 -3 -13 1 -16 10 -3 8 -2 12 4 9 6 -3 10 -1 10 4 0
6 -4 11 -8 11 -12 0 -9 40 3 40 5 0 2 5 -8 11 -15 9 -16 13 -5 27 10 12 10 14
1 8 -7 -4 -13 -2 -13 3 0 6 6 11 13 12 9 0 9 2 -1 6 -10 4 -10 8 0 21 10 12
10 14 1 8 -19 -11 -16 24 4 48 10 12 11 15 3 9 -8 -7 -16 -13 -19 -13 -12 0 1
165 12 172 9 6 9 8 0 8 -7 0 -13 11 -13 25 0 14 6 25 13 25 8 0 9 2 1 8 -10 6
-11 27 -5 75 1 5 5 6 9 3 5 -3 9 1 9 9 0 8 -4 12 -9 9 -4 -3 -8 0 -8 5 0 6 4
11 9 11 4 0 7 11 6 25 -2 14 1 25 7 25 6 0 8 -7 5 -15 -4 -8 -1 -17 5 -21 6
-4 8 -3 4 4 -3 6 -1 14 6 18 7 4 10 3 5 -1 -4 -5 0 -19 9 -33 8 -13 13 -30 10
-37 -3 -9 0 -12 8 -9 8 3 16 -4 20 -19 3 -15 15 -27 30 -31 19 -5 24 -12 21
-31 -2 -18 1 -23 9 -15 8 6 16 3 26 -10 7 -10 18 -16 23 -13 5 3 3 -5 -3 -18
-10 -19 -10 -22 0 -12 8 7 20 9 35 3 16 -6 22 -5 22 6 0 8 -4 14 -9 14 -5 0
-6 5 -3 10 3 6 1 10 -6 10 -6 0 -9 8 -6 20 3 11 2 18 -2 16 -10 -6 -24 5 -38
31 -11 19 -10 21 1 17 21 -8 14 23 -10 40 -10 8 -16 18 -12 22 4 4 3 13 -3 21
-6 7 -8 13 -3 13 5 0 2 5 -6 10 -11 7 -11 10 -2 10 7 0 10 5 6 13 -3 6 9 -4
29 -23 19 -19 33 -38 31 -42z m-110 -64 c3 -8 2 -12 -4 -9 -6 3 -10 10 -10 16
0 14 7 11 14 -7z m571 -114 c0 -54 -1 -97 -4 -95 -2 3 -10 0 -18 -6 -10 -9
-13 -8 -13 5 0 10 -3 15 -7 13 -5 -3 -13 1 -20 8 -10 11 -10 15 0 18 7 3 5 6
-5 6 -9 1 -20 6 -24 13 -5 8 -1 9 12 5 17 -6 17 -6 2 6 -20 16 -29 73 -10 69
8 -1 11 2 7 8 -3 6 -11 8 -16 5 -5 -4 -9 -1 -9 6 0 7 8 9 21 6 17 -5 18 -3 7
11 -10 12 -10 14 0 8 7 -4 12 -2 12 6 0 9 3 9 10 -2 8 -13 11 -13 27 2 9 10
19 15 22 13 2 -3 5 -50 6 -105z m3165 -61 c0 -8 6 -7 18 2 15 13 16 12 3 -3
-10 -14 -18 -15 -32 -7 -23 12 -24 19 -4 19 8 0 15 -5 15 -11z m-1250 -159
c36 -20 51 -37 56 -67 4 -22 3 -24 -10 -14 -11 9 -16 9 -22 0 -4 -8 -3 -9 4
-5 8 5 10 -5 6 -33 -3 -23 -1 -42 5 -46 6 -3 11 -12 11 -18 0 -7 -4 -6 -10 3
-5 8 -10 10 -10 4 0 -6 6 -17 13 -23 47 -38 -48 -130 -120 -116 -10 2 -26 4
-35 4 -23 1 -76 47 -94 82 -30 58 -19 148 22 193 48 52 127 67 184 36z m667
-590 c-3 -10 -2 -21 2 -23 3 -2 0 -2 -8 0 -10 2 -11 0 -4 -9 15 -19 17 -121 2
-112 -8 4 -9 3 -5 -4 4 -6 14 -8 24 -5 15 6 16 5 2 -12 -9 -11 -10 -16 -2 -11
12 7 16 -4 13 -33 -2 -8 2 -10 10 -5 8 5 11 2 7 -8 -4 -8 -2 -21 2 -29 6 -8 4
-16 -3 -21 -8 -5 -7 -8 5 -8 11 0 15 -6 11 -20 -3 -11 -9 -17 -14 -14 -5 3 -6
-2 -3 -10 3 -9 11 -13 17 -9 6 3 3 -4 -5 -16 -9 -13 -14 -34 -12 -47 2 -13 1
-24 -4 -24 -5 0 -9 -7 -9 -15 0 -8 3 -15 6 -15 6 0 10 -36 12 -107 1 -28 5
-40 13 -36 6 4 6 1 -1 -9 -7 -8 -10 -18 -6 -21 3 -4 -2 -7 -13 -7 -16 0 -17
-2 -4 -10 8 -5 10 -10 4 -10 -6 0 -32 -20 -57 -45 -26 -25 -55 -45 -64 -45 -9
0 -14 -3 -10 -6 3 -4 0 -13 -8 -20 -17 -17 -29 -18 -19 -1 4 6 4 9 0 5 -4 -3
-7 -9 -6 -13 1 -4 -11 -18 -27 -31 -46 -41 -53 -45 -53 -37 0 4 -4 2 -9 -6 -8
-13 -12 -13 -28 0 -16 13 -17 13 -4 -3 9 -13 10 -18 2 -18 -7 0 -9 -5 -5 -12
5 -8 0 -9 -15 -5 -17 4 -25 0 -33 -19 -6 -13 -15 -24 -20 -24 -5 0 -7 4 -3 9
3 5 0 13 -6 17 -7 4 -10 3 -6 -2 9 -15 -21 -47 -38 -40 -9 3 -13 2 -10 -4 7
-11 -25 -29 -43 -23 -8 3 -10 -1 -5 -12 5 -15 3 -16 -15 -6 -19 10 -21 9 -15
-6 6 -16 5 -17 -12 -3 -11 9 -16 10 -11 3 4 -8 2 -13 -4 -13 -6 0 -8 -5 -4
-12 5 -8 0 -7 -11 2 -11 9 -16 10 -11 3 4 -7 2 -14 -3 -14 -6 -1 -17 -2 -23
-3 -7 -1 -20 2 -28 8 -12 8 -13 8 -2 -4 18 -21 15 -29 -12 -26 -14 2 -29 -5
-37 -15 -9 -12 -17 -15 -25 -8 -8 6 -15 4 -24 -6 -7 -8 -20 -15 -29 -15 -9 0
-22 -5 -28 -11 -5 -5 -24 -11 -41 -11 -19 -1 -29 -5 -25 -11 4 -6 0 -8 -10 -4
-10 4 -17 1 -18 -6 0 -9 -2 -8 -6 1 -4 10 -8 9 -19 -5 -13 -17 -13 -17 -14 2
-1 19 -1 19 -11 2 -6 -9 -14 -15 -20 -12 -5 4 -9 2 -9 -4 0 -7 -8 -7 -26 -1
-35 14 -41 12 -18 -4 19 -15 19 -15 -1 -12 -11 2 -24 1 -30 -2 -19 -11 -59
-11 -74 1 -10 8 -13 8 -8 1 4 -7 0 -15 -9 -18 -10 -4 -13 -2 -8 7 5 9 4 9 -7
0 -15 -15 -33 -18 -25 -5 3 5 -1 9 -9 9 -8 0 -12 -4 -9 -9 3 -4 -1 -8 -8 -9
-7 0 -28 -2 -45 -3 -22 -3 -31 0 -26 8 4 6 -1 5 -10 -3 -9 -7 -17 -10 -17 -7
0 4 -9 2 -21 -5 -19 -10 -20 -9 -14 13 l7 23 -17 -24 c-14 -18 -19 -20 -26
-10 -7 12 -9 11 -9 0 0 -11 -4 -10 -16 5 -8 10 -13 14 -10 8 3 -7 -5 -14 -19
-16 -13 -3 -26 -1 -28 5 -2 6 -11 6 -25 -2 -12 -6 -22 -8 -22 -2 0 5 -8 8 -17
7 -10 0 -17 4 -16 11 3 13 -23 11 -38 -4 -14 -14 -61 -4 -52 11 5 7 2 7 -8 -1
-17 -13 -59 -14 -59 0 0 4 -8 7 -17 6 -39 -3 -54 1 -47 14 5 7 1 7 -10 -2 -15
-13 -19 -13 -26 0 -6 8 -21 13 -41 11 -27 -3 -31 -1 -25 15 5 16 5 16 -9 -1
-8 -11 -15 -14 -15 -7 0 7 -4 10 -8 7 -5 -3 -22 -2 -38 3 -20 6 -28 13 -26 26
3 17 3 17 -14 0 -17 -17 -18 -17 -25 1 -4 11 -8 14 -8 8 -1 -6 -8 -11 -16 -11
-18 0 -20 13 -2 20 6 3 -3 3 -22 0 -30 -5 -34 -4 -27 12 5 15 4 16 -9 5 -13
-11 -14 -10 -9 4 3 9 13 16 21 16 8 0 12 4 9 9 -5 8 15 29 58 61 18 13 19 13
12 0 -4 -8 0 -6 8 4 9 11 16 16 16 10 0 -5 5 -1 11 9 6 9 14 15 20 12 5 -4 9
-1 9 5 0 6 4 9 9 5 5 -3 12 -1 15 4 4 5 1 13 -5 17 -8 5 -9 3 -4 -6 5 -9 4
-11 -4 -6 -16 10 -2 29 16 21 14 -5 14 -3 2 11 -13 16 -12 16 9 5 18 -9 22 -9
20 1 -2 8 7 13 24 12 15 0 25 3 23 6 -6 10 32 39 41 32 5 -4 2 1 -5 11 -11 14
-11 17 0 17 10 0 10 3 1 12 -7 7 -12 17 -12 23 0 5 5 3 10 -5 8 -13 10 -12 11
5 1 11 1 23 0 27 0 3 11 5 24 3 19 -2 23 1 15 10 -10 12 0 27 20 31 20 4 39
18 34 25 -3 5 -1 9 4 9 5 0 36 24 67 54 36 34 65 53 76 51 10 -2 22 1 25 7 4
7 2 8 -4 4 -7 -4 -12 -2 -12 3 0 10 14 15 33 12 4 0 7 5 7 13 0 8 7 17 16 20
12 5 14 3 8 -7 -5 -7 -1 -4 10 8 10 11 24 19 30 17 6 -2 8 0 4 3 -4 4 -2 17 4
29 7 11 11 24 10 28 -1 4 6 4 16 1 9 -3 14 -3 10 2 -4 4 0 14 10 22 9 8 11 12
5 8 -7 -3 -13 -1 -13 4 0 6 10 11 23 12 12 0 17 3 10 5 -7 3 -9 12 -6 20 3 7
9 12 13 9 4 -3 11 2 14 11 3 8 2 12 -4 9 -6 -3 -10 -1 -10 4 0 10 14 15 33 12
4 -1 3 8 -4 20 -8 15 -8 19 0 15 6 -4 11 0 11 8 0 9 5 16 11 16 5 0 8 -4 5 -9
-3 -5 0 -8 7 -8 6 1 46 -16 87 -36 115 -56 223 -81 360 -81 125 -1 177 5 261
30 150 44 337 171 410 279 13 19 30 33 37 30 7 -3 11 -1 7 4 -5 8 25 71 34 71
2 0 1 -9 -2 -20z m-1472 -1200 c3 -5 -1 -10 -10 -10 -9 0 -13 5 -10 10 3 6 8
10 10 10 2 0 7 -4 10 -10z"/>
<path d="M9785 10869 c-4 -6 -5 -12 -2 -15 2 -3 7 2 10 11 7 17 1 20 -8 4z"/>
<path d="M9586 10782 c-3 -5 1 -9 9 -9 8 0 12 4 9 9 -3 4 -7 8 -9 8 -2 0 -6
-4 -9 -8z"/>
<path d="M11179 10713 c-13 -16 -12 -17 4 -4 9 7 17 15 17 17 0 8 -8 3 -21
-13z"/>
<path d="M9732 10634 c-1 -13 3 -35 8 -48 8 -21 5 -28 -13 -41 -24 -17 -16
-20 13 -5 15 8 17 6 13 -10 -3 -11 -8 -19 -12 -18 -3 0 -9 -1 -13 -2 -5 -1
-14 -3 -20 -4 -7 0 -13 -13 -12 -28 0 -23 -2 -25 -15 -15 -12 10 -13 9 -6 -2
5 -9 2 -19 -11 -29 -16 -13 -17 -14 -1 -9 21 8 23 -8 2 -17 -40 -15 -2 -56 53
-56 17 0 40 -10 55 -24 14 -13 29 -21 34 -17 4 3 1 -3 -7 -13 -11 -15 -12 -18
-2 -12 17 10 75 -50 65 -67 -4 -7 1 -6 10 2 15 12 21 9 18 -11 0 -4 15 2 34
13 33 20 50 38 23 24 -7 -4 -6 -1 3 7 33 28 44 84 17 91 -10 3 -18 13 -18 22
0 9 5 13 10 10 6 -4 8 -11 5 -16 -4 -5 -1 -9 4 -9 14 0 14 6 1 30 -7 13 -7 21
0 25 5 3 10 -2 11 -12 0 -11 3 -13 6 -5 2 6 9 9 14 6 6 -3 17 0 26 8 12 9 15
9 9 0 -5 -8 -1 -11 15 -9 13 2 25 9 27 15 2 7 9 10 15 6 7 -3 3 1 -8 10 -11 8
-29 23 -39 33 -11 10 -16 13 -12 6 7 -14 -11 -11 -41 5 -13 7 -23 19 -23 27 0
8 -6 15 -14 15 -15 0 -16 16 -3 37 5 9 -1 17 -17 25 -14 6 -26 16 -26 21 0 6
-3 7 -6 4 -11 -11 -45 13 -37 26 4 7 0 7 -10 -2 -12 -9 -17 -10 -17 -2 0 7 -4
10 -9 6 -5 -3 -17 2 -25 11 -9 8 -16 13 -16 10 0 -2 -13 -1 -28 3 -25 7 -28 6
-30 -15z"/>
<path d="M11470 10642 c0 -5 7 -9 15 -9 8 0 12 4 9 9 -3 4 -9 8 -15 8 -5 0 -9
-4 -9 -8z"/>
<path d="M10015 10479 c-4 -6 -5 -12 -2 -15 2 -3 7 2 10 11 7 17 1 20 -8 4z"/>
<path d="M9990 10290 c-9 -6 -10 -10 -3 -10 6 0 15 5 18 10 8 12 4 12 -15 0z"/>
<path d="M9236 10182 c-3 -5 1 -9 9 -9 8 0 12 4 9 9 -3 4 -7 8 -9 8 -2 0 -6
-4 -9 -8z"/>
<path d="M10075 10000 c3 -5 8 -10 11 -10 2 0 4 5 4 10 0 6 -5 10 -11 10 -5 0
-7 -4 -4 -10z"/>
<path d="M11519 9996 c-1 -3 -3 -10 -4 -16 -1 -5 -3 -19 -4 -31 0 -11 -5 -17
-11 -14 -6 3 -7 -1 -4 -9 3 -9 10 -14 14 -11 5 3 6 -4 3 -15 -3 -11 0 -20 6
-20 6 0 11 -12 11 -26 0 -16 4 -23 12 -18 8 5 9 0 5 -15 -3 -14 0 -24 9 -28 8
-3 14 -9 14 -15 0 -5 -4 -6 -10 -3 -6 3 -7 -1 -4 -9 4 -11 0 -16 -11 -16 -15
0 -15 -1 -1 -16 9 -8 14 -20 10 -25 -3 -5 -2 -9 3 -8 4 1 10 0 13 -1 11 -4 50
-6 45 -2 -8 8 25 33 35 27 6 -4 9 -3 8 2 -2 5 12 23 30 41 18 18 30 32 26 32
-3 0 0 8 7 17 10 11 10 14 2 9 -9 -5 -13 -1 -13 10 0 17 -1 17 -13 0 -12 -16
-14 -16 -26 -2 -8 9 -21 16 -30 16 -14 0 -14 2 -1 10 13 8 13 10 -2 10 -18 0
-33 33 -23 50 3 5 0 10 -7 10 -9 0 -9 3 2 10 11 7 11 10 2 10 -7 0 -10 5 -7
10 3 6 1 10 -5 10 -6 0 -8 5 -5 10 4 6 -5 10 -22 8 -16 -1 -34 1 -41 6 -7 4
-13 5 -13 2z"/>
<path d="M11660 9856 c0 -2 8 -10 18 -17 15 -13 16 -12 3 4 -13 16 -21 21 -21
13z"/>
<path d="M9957 9753 c-4 -3 -7 -11 -7 -17 0 -6 5 -5 12 2 6 6 9 14 7 17 -3 3
-9 2 -12 -2z"/>
<path d="M11716 9698 c3 -5 10 -6 15 -3 13 9 11 12 -6 12 -8 0 -12 -4 -9 -9z"/>
<path d="M11513 9595 c0 -8 4 -12 9 -9 5 3 6 10 3 15 -9 13 -12 11 -12 -6z"/>
<path d="M11513 9525 c0 -8 4 -12 9 -9 5 3 6 10 3 15 -9 13 -12 11 -12 -6z"/>
<path d="M10115 8739 c-3 -4 2 -6 10 -5 21 3 28 13 10 13 -9 0 -18 -4 -20 -8z"/>
<path d="M12051 9393 c0 -11 3 -13 6 -5 2 6 10 9 15 6 7 -4 8 -2 4 4 -11 18
-26 14 -25 -5z"/>
<path d="M8653 9335 c0 -8 5 -11 10 -8 6 4 8 -2 5 -14 -3 -12 0 -20 7 -20 15
0 8 32 -9 47 -9 7 -13 6 -13 -5z"/>
<path d="M8775 9129 c-4 -6 -5 -12 -2 -15 2 -3 7 2 10 11 7 17 1 20 -8 4z"/>
<path d="M9010 8880 c0 -5 5 -10 10 -10 6 0 10 5 10 10 0 6 -4 10 -10 10 -5 0
-10 -4 -10 -10z"/>
<path d="M9060 8866 c0 -2 7 -7 16 -10 8 -3 12 -2 9 4 -6 10 -25 14 -25 6z"/>
<path d="M9054 8696 c1 -8 5 -18 8 -22 4 -3 5 1 4 10 -1 8 -5 18 -8 22 -4 3
-5 -1 -4 -10z"/>
<path d="M9134 8676 c1 -8 5 -18 8 -22 4 -3 5 1 4 10 -1 8 -5 18 -8 22 -4 3
-5 -1 -4 -10z"/>
<path d="M9013 8625 c0 -8 4 -12 9 -9 5 3 6 10 3 15 -9 13 -12 11 -12 -6z"/>
<path d="M9099 8608 c-5 -18 -6 -38 -1 -34 7 8 12 36 6 36 -2 0 -4 -1 -5 -2z"/>
<path d="M9126 8582 c-3 -5 1 -9 9 -9 8 0 12 4 9 9 -3 4 -7 8 -9 8 -2 0 -6 -4
-9 -8z"/>
<path d="M8536 8567 c3 -10 9 -15 12 -12 3 3 0 11 -7 18 -10 9 -11 8 -5 -6z"/>
<path d="M8674 8542 c4 -3 14 -7 22 -8 9 -1 13 0 10 4 -4 3 -14 7 -22 8 -9 1
-13 0 -10 -4z"/>
<path d="M8615 8500 c-3 -5 -1 -10 4 -10 6 0 11 5 11 10 0 6 -2 10 -4 10 -3 0
-8 -4 -11 -10z"/>
<path d="M8566 8475 c4 -8 8 -15 10 -15 2 0 4 7 4 15 0 8 -4 15 -10 15 -5 0
-7 -7 -4 -15z"/>
<path d="M8635 8459 c-3 -4 2 -6 10 -5 21 3 28 13 10 13 -9 0 -18 -4 -20 -8z"/>
<path d="M8694 8462 c4 -3 14 -7 22 -8 9 -1 13 0 10 4 -4 3 -14 7 -22 8 -9 1
-13 0 -10 -4z"/>
<path d="M8630 8289 c0 -5 5 -7 10 -4 6 3 10 8 10 11 0 2 -4 4 -10 4 -5 0 -10
-5 -10 -11z"/>
<path d="M9036 7687 c3 -10 9 -15 12 -12 3 3 0 11 -7 18 -10 9 -11 8 -5 -6z"/>
<path d="M11755 7921 c-3 -5 -2 -12 3 -15 5 -3 9 1 9 9 0 17 -3 19 -12 6z"/>
<path d="M10250 7699 c0 -5 5 -7 10 -4 6 3 10 8 10 11 0 2 -4 4 -10 4 -5 0
-10 -5 -10 -11z"/>
<path d="M10215 7660 c-3 -5 -1 -10 4 -10 6 0 11 5 11 10 0 6 -2 10 -4 10 -3
0 -8 -4 -11 -10z"/>
<path d="M10185 7649 c-4 -6 -5 -12 -2 -15 2 -3 7 2 10 11 7 17 1 20 -8 4z"/>
<path d="M11719 7623 l-24 -28 28 24 c15 14 27 26 27 28 0 8 -8 1 -31 -24z"/>
<path d="M9785 7279 c-3 -4 2 -6 10 -5 21 3 28 13 10 13 -9 0 -18 -4 -20 -8z"/>
<path d="M15080 10549 c-56 -10 -86 -26 -125 -63 -20 -20 -40 -36 -43 -36 -4
0 -23 -15 -43 -33 -20 -17 -43 -36 -52 -42 -38 -25 -167 -127 -168 -133 0 -4
-3 -19 -5 -35 -4 -21 3 -35 28 -61 50 -52 151 -71 229 -44 30 10 130 79 167
115 7 7 17 13 21 13 4 0 24 16 44 35 20 19 39 35 41 35 5 0 68 54 103 87 80
77 -56 189 -197 162z"/>
<path d="M14425 10063 c-40 -7 -95 -26 -95 -34 0 -4 -9 -11 -20 -14 -11 -3
-26 -12 -32 -18 -7 -7 -65 -44 -128 -82 -63 -37 -118 -73 -121 -78 -3 -5 -9
-8 -13 -8 -20 4 -69 -35 -83 -64 -25 -52 -4 -91 64 -122 104 -48 184 -30 348
77 33 21 66 39 73 39 6 1 12 6 12 12 0 5 5 7 10 4 6 -3 10 -2 10 3 0 5 16 17
35 28 19 10 35 21 35 24 0 3 12 11 28 17 57 26 85 57 87 99 2 32 -2 44 -28 66
-43 39 -122 61 -182 51z"/>
<path d="M13600 9605 c-19 -7 -87 -39 -150 -71 -63 -31 -121 -57 -127 -57 -7
0 -13 -4 -13 -8 0 -5 -14 -12 -50 -23 -3 -1 -11 -5 -17 -9 -7 -5 -13 -5 -13 0
0 4 -4 4 -8 -2 -4 -5 -28 -20 -54 -32 -55 -26 -85 -71 -68 -103 6 -11 7 -20 3
-20 -11 0 38 -45 64 -58 47 -25 137 -33 173 -15 14 7 30 13 37 13 26 0 428
195 463 224 17 14 26 33 28 57 3 30 -2 41 -32 67 -58 51 -159 67 -236 37z"/>
<path d="M2679 9216 c-2 -2 -38 -6 -79 -10 -73 -6 -160 -19 -210 -30 -14 -3
-36 -8 -50 -10 -96 -18 -271 -70 -364 -109 -77 -32 -249 -119 -321 -163 -426
-261 -797 -697 -960 -1129 -66 -175 -116 -368 -131 -508 -3 -28 -9 -79 -14
-112 -9 -66 -5 -476 5 -540 46 -293 49 -308 111 -493 166 -498 534 -941 1014
-1220 42 -25 219 -112 227 -112 4 0 20 -7 36 -15 69 -36 339 -114 452 -130 22
-4 47 -8 55 -10 8 -2 40 -7 70 -10 30 -3 89 -10 130 -14 80 -9 381 -7 440 2
19 3 53 8 75 11 22 3 49 8 60 10 11 3 22 5 25 5 4 1 8 1721 4 1721 0 0 -27
-13 -60 -29 -191 -95 -417 -110 -589 -38 -187 78 -330 262 -362 467 -22 142 3
300 65 413 125 228 345 358 594 351 335 -9 558 -245 605 -639 3 -22 6 -524 6
-1115 l2 -1075 833 0 833 0 -4 1235 c-2 679 -6 1255 -10 1279 -3 25 -8 67 -12
95 -11 92 -54 301 -80 392 -140 487 -426 891 -815 1148 -134 89 -144 95 -250
147 -168 81 -401 158 -560 184 -19 3 -57 10 -85 15 -27 5 -75 12 -105 16 -30
3 -73 8 -95 10 -47 6 -481 14 -486 10z"/>
<path d="M7625 8220 c-46 -7 -248 -105 -460 -226 -33 -18 -69 -38 -81 -45 -44
-23 -61 -77 -39 -123 23 -49 75 -71 164 -71 71 0 82 3 161 45 47 25 87 47 90
50 6 6 75 43 210 112 58 29 120 68 139 86 29 29 33 38 27 70 -3 20 -10 38 -16
40 -5 2 -10 11 -10 20 0 8 -3 12 -7 9 -3 -4 -13 -1 -22 7 -21 19 -106 33 -156
26z"/>
<path d="M6740 7728 c-24 -4 -66 -21 -93 -38 -27 -16 -53 -30 -58 -30 -5 0 -9
-5 -9 -12 0 -6 -3 -9 -6 -5 -6 5 -15 0 -49 -30 -7 -7 -17 -13 -21 -13 -4 0
-22 -11 -40 -25 -18 -14 -36 -25 -39 -25 -4 0 -42 -25 -86 -55 -44 -30 -82
-55 -85 -55 -3 0 -19 -12 -35 -27 -46 -44 -48 -105 -4 -150 19 -19 129 -52
141 -42 6 5 13 6 16 3 9 -8 101 18 116 33 7 7 17 13 22 13 5 0 15 6 22 13 25
23 77 57 88 57 5 0 10 4 10 9 0 5 10 13 22 17 12 3 27 12 34 19 7 6 65 44 129
84 118 74 158 115 152 156 -11 77 -113 124 -227 103z"/>
<path d="M5923 7180 c-18 -4 -33 -6 -33 -4 0 9 -185 -111 -235 -154 -5 -4 -66
-49 -135 -99 -154 -111 -178 -148 -140 -211 36 -59 135 -86 227 -63 38 10 126
64 198 123 28 23 173 129 236 173 79 55 106 96 95 140 -17 69 -122 115 -213
95z"/>
</g>
</svg>
