<?xml version="1.0" standalone="no"?>
<!DOCTYPE svg PUBLIC "-//W3C//DTD SVG 20010904//EN"
 "http://www.w3.org/TR/2001/REC-SVG-20010904/DTD/svg10.dtd">
<svg version="1.0" xmlns="http://www.w3.org/2000/svg"
 width="2000.000000pt" height="2000.000000pt" viewBox="0 0 2000.000000 2000.000000"
 preserveAspectRatio="xMidYMid meet">
<metadata>
Created by potrace 1.11, written by Peter Selinger 2001-2013
</metadata>
<g transform="translate(0.000000,2000.000000) scale(0.100000,-0.100000)"
fill="#000000" stroke="none">
<path d="M0 10000 l0 -10000 10000 0 10000 0 0 10000 0 10000 -10000 0 -10000
0 0 -10000z m16580 3937 c0 -1280 3 -1898 11 -1973 38 -381 192 -607 455 -670
93 -22 259 -22 344 0 209 56 389 227 453 431 26 84 30 258 8 345 -46 183 -173
341 -339 421 -80 38 -207 63 -288 56 -88 -9 -214 -53 -307 -109 -44 -26 -82
-48 -84 -48 -2 0 -2 413 -1 918 l3 917 145 12 c186 15 410 16 541 3 537 -55
1010 -290 1401 -699 365 -381 575 -832 629 -1350 17 -165 7 -503 -20 -656 -86
-488 -284 -867 -636 -1220 -367 -368 -792 -582 -1310 -661 -187 -29 -575 -26
-750 5 -499 88 -951 323 -1280 662 -388 400 -593 908 -635 1569 -6 104 -10
861 -10 2038 l0 1872 835 0 835 0 0 -1863z m-5824 -2401 c545 -82 1033 -326
1418 -712 392 -392 639 -896 717 -1464 17 -123 18 -497 1 -615 -49 -341 -148
-642 -301 -915 l-59 -105 41 -35 c72 -61 1329 -1239 1391 -1302 144 -150 180
-365 90 -546 -129 -263 -474 -350 -704 -178 -49 37 -1389 1288 -1431 1337
l-27 30 -105 -69 c-325 -214 -665 -342 -1062 -398 -146 -21 -465 -23 -610 -5
-338 42 -668 149 -945 308 -1073 612 -1542 1875 -1129 3038 53 150 167 377
257 515 193 295 483 579 779 762 338 209 671 320 1123 372 76 9 460 -4 556
-18z m4493 -1019 c42 -28 57 -60 47 -100 -5 -20 -151 -145 -321 -274 -69 -52
-144 -66 -230 -42 -45 13 -105 68 -105 97 0 39 13 54 114 129 55 42 133 103
171 134 104 85 117 91 207 86 63 -3 84 -9 117 -30z m-702 -469 c82 -24 118
-104 71 -151 -27 -26 -289 -192 -384 -242 -83 -44 -164 -48 -234 -12 -62 31
-86 67 -74 109 10 33 52 62 403 275 67 40 134 47 218 21z m-769 -444 c52 -21
92 -62 92 -95 0 -50 -37 -79 -209 -162 -280 -134 -324 -150 -402 -145 -115 6
-184 73 -153 147 11 26 28 39 91 67 43 20 152 71 243 114 91 43 172 81 180 83
32 11 123 6 158 -9z m-10519 -409 c452 -57 829 -210 1141 -462 88 -71 246
-233 311 -318 266 -347 415 -761 459 -1270 6 -73 10 -577 10 -1287 l0 -1168
-835 0 -834 0 -4 1128 -3 1127 -22 79 c-62 212 -175 360 -336 435 -86 40 -156
55 -266 54 -184 0 -314 -56 -450 -193 -140 -139 -193 -266 -192 -460 1 -122
17 -194 69 -300 69 -143 226 -267 384 -305 148 -35 350 -10 489 60 38 19 72
35 75 35 3 0 5 -387 5 -859 0 -810 -1 -860 -17 -865 -123 -34 -503 -41 -713
-12 -273 37 -492 102 -725 215 -247 120 -433 258 -645 477 -329 340 -521 737
-597 1234 -22 143 -25 548 -5 685 53 364 161 657 346 940 317 483 816 846
1345 979 119 31 254 54 374 66 129 12 488 4 636 -15z m4507 -994 c80 -36 97
-101 42 -153 -18 -17 -143 -90 -278 -161 -216 -116 -252 -131 -303 -135 -71
-5 -136 17 -172 59 -55 66 -22 112 143 202 144 80 291 155 357 184 64 28 154
30 211 4z m-868 -491 c32 -14 47 -29 58 -57 24 -56 3 -92 -88 -150 -40 -25
-145 -93 -233 -151 -88 -58 -177 -111 -199 -118 -82 -29 -179 -11 -226 43 -67
76 -42 108 228 282 122 78 236 148 254 156 49 21 154 19 206 -5z m-835 -546
c49 -25 66 -44 73 -79 9 -48 -15 -85 -88 -135 -35 -24 -131 -95 -215 -157
-185 -136 -201 -145 -283 -150 -54 -4 -73 0 -110 19 -24 13 -53 37 -62 54 -16
27 -17 36 -6 70 12 35 37 57 228 196 118 86 233 166 255 177 51 26 162 28 208
5z"/>
<path d="M9790 10876 c-204 -70 -260 -110 -260 -182 0 -51 -7 -53 -65 -24 -52
26 -57 26 -120 -15 -37 -23 -55 -41 -55 -55 0 -29 24 -35 91 -24 59 10 140 -4
154 -26 18 -29 -38 -70 -142 -104 -55 -18 -121 -74 -146 -123 -8 -15 -18 -53
-22 -84 -7 -53 -5 -58 25 -93 l32 -36 -56 0 -56 0 -2 -442 -3 -442 -35 -11
c-54 -16 -60 -23 -60 -73 0 -38 6 -55 31 -85 17 -20 36 -37 44 -37 7 0 16 -7
19 -16 7 -19 8 -164 1 -164 -3 0 -23 9 -44 20 -21 10 -70 26 -109 35 -38 9
-79 25 -92 37 -31 29 -77 104 -154 253 -63 120 -87 155 -108 155 -4 0 -8 -8
-8 -18 0 -23 43 -134 64 -164 20 -29 20 -48 0 -48 -19 0 -122 106 -167 172
-17 27 -35 48 -40 48 -24 0 -31 -67 -31 -290 0 -205 3 -249 22 -340 98 -463
304 -828 624 -1109 94 -82 249 -195 310 -227 39 -20 40 -18 68 115 29 144 37
167 70 199 23 24 30 43 44 131 16 100 16 103 -4 131 -11 15 -47 51 -80 80 -85
74 -97 102 -22 50 149 -101 325 -153 500 -148 l97 3 5 299 5 299 32 -36 c18
-20 37 -54 43 -76 8 -29 18 -43 44 -55 19 -9 55 -45 85 -85 28 -38 88 -104
133 -145 l82 -76 -23 -48 c-54 -110 -111 -181 -204 -252 -96 -73 -181 -142
-232 -189 -19 -17 -34 -43 -40 -71 -9 -40 -14 -45 -52 -58 -27 -8 -54 -27 -73
-52 -17 -21 -41 -42 -53 -46 -34 -11 -87 -54 -102 -84 l-14 -28 74 -26 c350
-124 802 -126 1182 -5 268 86 543 247 737 434 l69 66 -9 62 c-9 75 -10 151 0
232 7 51 4 70 -18 128 -38 99 -36 191 5 282 111 245 99 547 -30 767 -21 37
-36 69 -33 72 3 3 28 6 55 6 l50 0 121 -120 c103 -102 126 -120 152 -120 41 0
236 58 247 73 8 12 2 162 -10 225 -3 19 -12 36 -19 39 -8 3 -35 -13 -60 -36
-26 -23 -54 -41 -64 -41 -10 0 -26 19 -40 51 -23 48 -79 109 -100 109 -6 0
-10 -17 -10 -39 0 -81 -61 -83 -103 -3 -31 56 -54 76 -103 86 -26 6 -44 -2
-122 -54 -50 -33 -94 -60 -97 -60 -3 0 -32 21 -64 48 -32 26 -71 57 -87 70
-25 19 -26 22 -7 17 29 -8 82 23 89 51 3 12 -1 36 -10 52 -9 17 -16 38 -16 46
0 17 56 35 115 37 68 2 84 11 175 103 100 102 98 101 184 31 72 -59 118 -64
168 -18 26 24 23 42 -27 138 -133 256 -328 488 -553 657 -154 117 -353 227
-386 215 -9 -4 -21 -27 -27 -52 -6 -26 -27 -64 -45 -87 -20 -23 -34 -51 -34
-67 0 -30 -35 -100 -59 -117 -9 -7 -34 -18 -56 -24 -49 -15 -130 -55 -170 -85
-16 -12 -49 -25 -73 -28 -56 -7 -122 -61 -159 -130 -46 -85 -96 -89 -181 -12
-41 37 -55 58 -73 112 -28 87 -28 112 5 136 31 22 32 34 8 61 -10 12 -31 59
-47 106 -27 84 -71 166 -119 225 -24 30 -25 30 -123 30 -94 0 -98 1 -101 23
-5 30 -35 28 -152 -12z m52 -258 c87 -38 98 -45 98 -68 0 -30 41 -71 96 -95
38 -17 52 -28 48 -38 -7 -20 -37 -27 -81 -20 -44 7 -57 -10 -37 -48 20 -39 18
-57 -12 -96 -37 -49 -66 -45 -123 18 -50 56 -87 79 -124 79 -34 0 -64 24 -50
41 6 8 16 31 22 51 7 21 26 49 42 62 28 24 29 28 20 63 -26 93 -12 101 101 51z
m-96 -400 c17 -18 43 -50 58 -70 l27 -38 -107 0 -107 0 5 43 c11 96 68 126
124 65z m264 -143 c47 -93 91 -153 148 -195 52 -40 63 -71 35 -102 -44 -49
-94 -58 -177 -33 -63 19 -79 7 -48 -35 18 -24 20 -34 12 -50 -10 -19 -20 -23
-80 -33 -14 -2 -32 -6 -40 -8 -13 -3 -15 29 -18 239 -2 225 -1 243 15 248 10
3 34 13 53 24 19 10 42 17 50 17 8 -1 31 -34 50 -72z m-280 -370 l0 -285 125
0 125 0 0 -240 0 -240 -126 0 -127 0 6 -102 c6 -127 29 -200 78 -249 36 -36
111 -69 156 -69 l23 0 0 -240 0 -240 -53 0 c-78 0 -196 33 -290 82 -113 59
-230 175 -280 278 -82 170 -87 230 -87 972 l0 618 225 0 225 0 0 -285z m1869
266 c6 -10 13 -37 17 -60 7 -45 19 -59 61 -70 45 -12 42 -45 -8 -92 -73 -68
-126 -62 -114 12 5 28 1 48 -16 80 -35 70 -41 100 -24 126 19 29 70 32 84 4z
m-397 -520 c252 -65 471 -290 523 -536 19 -92 19 -238 -1 -328 -51 -231 -246
-444 -479 -523 -108 -36 -276 -45 -391 -19 -371 80 -623 444 -565 815 27 170
92 292 224 416 92 87 217 153 332 178 104 21 266 20 357 -3z m-1276 -799 c-4
-3 -14 2 -24 12 -16 18 -16 18 6 6 13 -6 21 -14 18 -18z"/>
<path d="M10892 9004 c-139 -69 -193 -239 -121 -382 132 -265 516 -165 512
133 -1 82 -19 129 -71 187 -80 89 -214 115 -320 62z m276 -236 c2 -29 -1 -66
-8 -83 -11 -28 -12 -29 -25 -11 -24 32 -29 99 -10 136 22 42 37 28 43 -42z"/>
</g>
</svg>
